<?xml version="1.0" encoding="UTF-8" standalone="no"?>
<!DOCTYPE svg PUBLIC "-//W3C//DTD SVG 1.1//EN"
 "http://www.w3.org/Graphics/SVG/1.1/DTD/svg11.dtd">
<!-- Generated by graphviz version 2.43.0 (0)
 -->
<!-- Title: %3 Pages: 1 -->
<svg width="1839pt" height="210pt"
 viewBox="0.00 0.00 1838.69 210.00" xmlns="http://www.w3.org/2000/svg" xmlns:xlink="http://www.w3.org/1999/xlink">
<g id="graph0" class="graph" transform="scale(1 1) rotate(0) translate(4 206)">
<title>%3</title>
<polygon fill="white" stroke="transparent" points="-4,4 -4,-206 1834.69,-206 1834.69,4 -4,4"/>
<!-- 140527634208256 -->
<g id="node1" class="node">
<title>140527634208256</title>
<polygon fill="none" stroke="black" points="375,-55.5 375,-91.5 641,-91.5 641,-55.5 375,-55.5"/>
<text text-anchor="middle" x="402.5" y="-69.8" font-family="Times,serif" font-size="14.00">x1w1</text>
<polyline fill="none" stroke="black" points="430,-55.5 430,-91.5 "/>
<text text-anchor="middle" x="483.5" y="-69.8" font-family="Times,serif" font-size="14.00">data &#45;6.0000</text>
<polyline fill="none" stroke="black" points="537,-55.5 537,-91.5 "/>
<text text-anchor="middle" x="589" y="-69.8" font-family="Times,serif" font-size="14.00">grad 0.5000</text>
</g>
<!-- 140527634211376+ -->
<g id="node6" class="node">
<title>140527634211376+</title>
<ellipse fill="none" stroke="black" cx="704" cy="-100.5" rx="27" ry="18"/>
<text text-anchor="middle" x="704" y="-96.8" font-family="Times,serif" font-size="14.00">+</text>
</g>
<!-- 140527634208256&#45;&gt;140527634211376+ -->
<g id="edge8" class="edge">
<title>140527634208256&#45;&gt;140527634211376+</title>
<path fill="none" stroke="black" d="M638.4,-91.51C648.78,-92.95 658.6,-94.32 667.3,-95.53"/>
<polygon fill="black" stroke="black" points="666.94,-99.01 677.32,-96.93 667.9,-92.08 666.94,-99.01"/>
</g>
<!-- 140527634208256* -->
<g id="node2" class="node">
<title>140527634208256*</title>
<ellipse fill="none" stroke="black" cx="312" cy="-73.5" rx="27" ry="18"/>
<text text-anchor="middle" x="312" y="-69.8" font-family="Times,serif" font-size="14.00">*</text>
</g>
<!-- 140527634208256*&#45;&gt;140527634208256 -->
<g id="edge1" class="edge">
<title>140527634208256*&#45;&gt;140527634208256</title>
<path fill="none" stroke="black" d="M339.16,-73.5C346.61,-73.5 355.28,-73.5 364.68,-73.5"/>
<polygon fill="black" stroke="black" points="364.73,-77 374.73,-73.5 364.73,-70 364.73,-77"/>
</g>
<!-- 140527634203168 -->
<g id="node3" class="node">
<title>140527634203168</title>
<polygon fill="none" stroke="black" points="1232,-109.5 1232,-145.5 1464,-145.5 1464,-109.5 1232,-109.5"/>
<text text-anchor="middle" x="1245" y="-123.8" font-family="Times,serif" font-size="14.00">n</text>
<polyline fill="none" stroke="black" points="1258,-109.5 1258,-145.5 "/>
<text text-anchor="middle" x="1309" y="-123.8" font-family="Times,serif" font-size="14.00">data 0.8814</text>
<polyline fill="none" stroke="black" points="1360,-109.5 1360,-145.5 "/>
<text text-anchor="middle" x="1412" y="-123.8" font-family="Times,serif" font-size="14.00">grad 0.5000</text>
</g>
<!-- 140527634209504tanh -->
<g id="node10" class="node">
<title>140527634209504tanh</title>
<ellipse fill="none" stroke="black" cx="1531.85" cy="-127.5" rx="31.7" ry="18"/>
<text text-anchor="middle" x="1531.85" y="-123.8" font-family="Times,serif" font-size="14.00">tanh</text>
</g>
<!-- 140527634203168&#45;&gt;140527634209504tanh -->
<g id="edge14" class="edge">
<title>140527634203168&#45;&gt;140527634209504tanh</title>
<path fill="none" stroke="black" d="M1464.17,-127.5C1473.08,-127.5 1481.66,-127.5 1489.53,-127.5"/>
<polygon fill="black" stroke="black" points="1489.78,-131 1499.78,-127.5 1489.78,-124 1489.78,-131"/>
</g>
<!-- 140527634203168+ -->
<g id="node4" class="node">
<title>140527634203168+</title>
<ellipse fill="none" stroke="black" cx="1169" cy="-127.5" rx="27" ry="18"/>
<text text-anchor="middle" x="1169" y="-123.8" font-family="Times,serif" font-size="14.00">+</text>
</g>
<!-- 140527634203168+&#45;&gt;140527634203168 -->
<g id="edge2" class="edge">
<title>140527634203168+&#45;&gt;140527634203168</title>
<path fill="none" stroke="black" d="M1196.12,-127.5C1203.53,-127.5 1212.14,-127.5 1221.4,-127.5"/>
<polygon fill="black" stroke="black" points="1221.69,-131 1231.69,-127.5 1221.69,-124 1221.69,-131"/>
</g>
<!-- 140527634211376 -->
<g id="node5" class="node">
<title>140527634211376</title>
<polygon fill="none" stroke="black" points="767,-82.5 767,-118.5 1106,-118.5 1106,-82.5 767,-82.5"/>
<text text-anchor="middle" x="831" y="-96.8" font-family="Times,serif" font-size="14.00">x1*w1 + x2*w2</text>
<polyline fill="none" stroke="black" points="895,-82.5 895,-118.5 "/>
<text text-anchor="middle" x="948.5" y="-96.8" font-family="Times,serif" font-size="14.00">data &#45;6.0000</text>
<polyline fill="none" stroke="black" points="1002,-82.5 1002,-118.5 "/>
<text text-anchor="middle" x="1054" y="-96.8" font-family="Times,serif" font-size="14.00">grad 0.5000</text>
</g>
<!-- 140527634211376&#45;&gt;140527634203168+ -->
<g id="edge13" class="edge">
<title>140527634211376&#45;&gt;140527634203168+</title>
<path fill="none" stroke="black" d="M1091.25,-118.51C1106.17,-120.26 1120.12,-121.89 1131.92,-123.27"/>
<polygon fill="black" stroke="black" points="1131.79,-126.78 1142.13,-124.47 1132.6,-119.83 1131.79,-126.78"/>
</g>
<!-- 140527634211376+&#45;&gt;140527634211376 -->
<g id="edge3" class="edge">
<title>140527634211376+&#45;&gt;140527634211376</title>
<path fill="none" stroke="black" d="M731.44,-100.5C738.81,-100.5 747.42,-100.5 756.84,-100.5"/>
<polygon fill="black" stroke="black" points="756.94,-104 766.94,-100.5 756.94,-97 756.94,-104"/>
</g>
<!-- 140527634202688 -->
<g id="node7" class="node">
<title>140527634202688</title>
<polygon fill="none" stroke="black" points="377.5,-110.5 377.5,-146.5 638.5,-146.5 638.5,-110.5 377.5,-110.5"/>
<text text-anchor="middle" x="405" y="-124.8" font-family="Times,serif" font-size="14.00">x2w2</text>
<polyline fill="none" stroke="black" points="432.5,-110.5 432.5,-146.5 "/>
<text text-anchor="middle" x="483.5" y="-124.8" font-family="Times,serif" font-size="14.00">data 0.0000</text>
<polyline fill="none" stroke="black" points="534.5,-110.5 534.5,-146.5 "/>
<text text-anchor="middle" x="586.5" y="-124.8" font-family="Times,serif" font-size="14.00">grad 0.5000</text>
</g>
<!-- 140527634202688&#45;&gt;140527634211376+ -->
<g id="edge10" class="edge">
<title>140527634202688&#45;&gt;140527634211376+</title>
<path fill="none" stroke="black" d="M633.78,-110.49C645.77,-108.76 657.15,-107.12 667.08,-105.68"/>
<polygon fill="black" stroke="black" points="667.86,-109.11 677.25,-104.22 666.86,-102.18 667.86,-109.11"/>
</g>
<!-- 140527634202688* -->
<g id="node8" class="node">
<title>140527634202688*</title>
<ellipse fill="none" stroke="black" cx="312" cy="-128.5" rx="27" ry="18"/>
<text text-anchor="middle" x="312" y="-124.8" font-family="Times,serif" font-size="14.00">*</text>
</g>
<!-- 140527634202688*&#45;&gt;140527634202688 -->
<g id="edge4" class="edge">
<title>140527634202688*&#45;&gt;140527634202688</title>
<path fill="none" stroke="black" d="M339.16,-128.5C347.24,-128.5 356.75,-128.5 367.07,-128.5"/>
<polygon fill="black" stroke="black" points="367.2,-132 377.2,-128.5 367.2,-125 367.2,-132"/>
</g>
<!-- 140527634209504 -->
<g id="node9" class="node">
<title>140527634209504</title>
<polygon fill="none" stroke="black" points="1599.69,-109.5 1599.69,-145.5 1830.69,-145.5 1830.69,-109.5 1599.69,-109.5"/>
<text text-anchor="middle" x="1612.19" y="-123.8" font-family="Times,serif" font-size="14.00">o</text>
<polyline fill="none" stroke="black" points="1624.69,-109.5 1624.69,-145.5 "/>
<text text-anchor="middle" x="1675.69" y="-123.8" font-family="Times,serif" font-size="14.00">data 0.7071</text>
<polyline fill="none" stroke="black" points="1726.69,-109.5 1726.69,-145.5 "/>
<text text-anchor="middle" x="1778.69" y="-123.8" font-family="Times,serif" font-size="14.00">grad 1.0000</text>
</g>
<!-- 140527634209504tanh&#45;&gt;140527634209504 -->
<g id="edge5" class="edge">
<title>140527634209504tanh&#45;&gt;140527634209504</title>
<path fill="none" stroke="black" d="M1564.02,-127.5C1571.61,-127.5 1580.19,-127.5 1589.31,-127.5"/>
<polygon fill="black" stroke="black" points="1589.4,-131 1599.4,-127.5 1589.4,-124 1589.4,-131"/>
</g>
<!-- 140527634211136 -->
<g id="node11" class="node">
<title>140527634211136</title>
<polygon fill="none" stroke="black" points="820.5,-137.5 820.5,-173.5 1052.5,-173.5 1052.5,-137.5 820.5,-137.5"/>
<text text-anchor="middle" x="833.5" y="-151.8" font-family="Times,serif" font-size="14.00">b</text>
<polyline fill="none" stroke="black" points="846.5,-137.5 846.5,-173.5 "/>
<text text-anchor="middle" x="897.5" y="-151.8" font-family="Times,serif" font-size="14.00">data 6.8814</text>
<polyline fill="none" stroke="black" points="948.5,-137.5 948.5,-173.5 "/>
<text text-anchor="middle" x="1000.5" y="-151.8" font-family="Times,serif" font-size="14.00">grad 0.5000</text>
</g>
<!-- 140527634211136&#45;&gt;140527634203168+ -->
<g id="edge12" class="edge">
<title>140527634211136&#45;&gt;140527634203168+</title>
<path fill="none" stroke="black" d="M1052.75,-141.5C1081.57,-138 1110.4,-134.5 1132.01,-131.87"/>
<polygon fill="black" stroke="black" points="1132.5,-135.34 1142.01,-130.66 1131.66,-128.39 1132.5,-135.34"/>
</g>
<!-- 140527634213200 -->
<g id="node12" class="node">
<title>140527634213200</title>
<polygon fill="none" stroke="black" points="2.5,-165.5 2.5,-201.5 246.5,-201.5 246.5,-165.5 2.5,-165.5"/>
<text text-anchor="middle" x="21.5" y="-179.8" font-family="Times,serif" font-size="14.00">w2</text>
<polyline fill="none" stroke="black" points="40.5,-165.5 40.5,-201.5 "/>
<text text-anchor="middle" x="91.5" y="-179.8" font-family="Times,serif" font-size="14.00">data 1.0000</text>
<polyline fill="none" stroke="black" points="142.5,-165.5 142.5,-201.5 "/>
<text text-anchor="middle" x="194.5" y="-179.8" font-family="Times,serif" font-size="14.00">grad 0.0000</text>
</g>
<!-- 140527634213200&#45;&gt;140527634202688* -->
<g id="edge9" class="edge">
<title>140527634213200&#45;&gt;140527634202688*</title>
<path fill="none" stroke="black" d="M218.13,-165.46C228.63,-162.77 239.1,-159.78 249,-156.5 259.71,-152.96 271.05,-148.16 281.07,-143.54"/>
<polygon fill="black" stroke="black" points="282.67,-146.66 290.2,-139.21 279.67,-140.33 282.67,-146.66"/>
</g>
<!-- 140527634213248 -->
<g id="node13" class="node">
<title>140527634213248</title>
<polygon fill="none" stroke="black" points="4.5,-110.5 4.5,-146.5 244.5,-146.5 244.5,-110.5 4.5,-110.5"/>
<text text-anchor="middle" x="21.5" y="-124.8" font-family="Times,serif" font-size="14.00">x2</text>
<polyline fill="none" stroke="black" points="38.5,-110.5 38.5,-146.5 "/>
<text text-anchor="middle" x="89.5" y="-124.8" font-family="Times,serif" font-size="14.00">data 0.0000</text>
<polyline fill="none" stroke="black" points="140.5,-110.5 140.5,-146.5 "/>
<text text-anchor="middle" x="192.5" y="-124.8" font-family="Times,serif" font-size="14.00">grad 0.5000</text>
</g>
<!-- 140527634213248&#45;&gt;140527634202688* -->
<g id="edge11" class="edge">
<title>140527634213248&#45;&gt;140527634202688*</title>
<path fill="none" stroke="black" d="M244.55,-128.5C255.31,-128.5 265.54,-128.5 274.62,-128.5"/>
<polygon fill="black" stroke="black" points="274.7,-132 284.7,-128.5 274.7,-125 274.7,-132"/>
</g>
<!-- 140527634213296 -->
<g id="node14" class="node">
<title>140527634213296</title>
<polygon fill="none" stroke="black" points="0,-55.5 0,-91.5 249,-91.5 249,-55.5 0,-55.5"/>
<text text-anchor="middle" x="19" y="-69.8" font-family="Times,serif" font-size="14.00">w1</text>
<polyline fill="none" stroke="black" points="38,-55.5 38,-91.5 "/>
<text text-anchor="middle" x="91.5" y="-69.8" font-family="Times,serif" font-size="14.00">data &#45;3.0000</text>
<polyline fill="none" stroke="black" points="145,-55.5 145,-91.5 "/>
<text text-anchor="middle" x="197" y="-69.8" font-family="Times,serif" font-size="14.00">grad 1.0000</text>
</g>
<!-- 140527634213296&#45;&gt;140527634208256* -->
<g id="edge7" class="edge">
<title>140527634213296&#45;&gt;140527634208256*</title>
<path fill="none" stroke="black" d="M249.23,-73.5C258.37,-73.5 267.05,-73.5 274.87,-73.5"/>
<polygon fill="black" stroke="black" points="274.95,-77 284.95,-73.5 274.95,-70 274.95,-77"/>
</g>
<!-- 140527635480000 -->
<g id="node15" class="node">
<title>140527635480000</title>
<polygon fill="none" stroke="black" points="2.5,-0.5 2.5,-36.5 246.5,-36.5 246.5,-0.5 2.5,-0.5"/>
<text text-anchor="middle" x="19.5" y="-14.8" font-family="Times,serif" font-size="14.00">x1</text>
<polyline fill="none" stroke="black" points="36.5,-0.5 36.5,-36.5 "/>
<text text-anchor="middle" x="87.5" y="-14.8" font-family="Times,serif" font-size="14.00">data 2.0000</text>
<polyline fill="none" stroke="black" points="138.5,-0.5 138.5,-36.5 "/>
<text text-anchor="middle" x="192.5" y="-14.8" font-family="Times,serif" font-size="14.00">grad &#45;1.5000</text>
</g>
<!-- 140527635480000&#45;&gt;140527634208256* -->
<g id="edge6" class="edge">
<title>140527635480000&#45;&gt;140527634208256*</title>
<path fill="none" stroke="black" d="M214.42,-36.55C226.15,-39.54 237.93,-42.87 249,-46.5 259.46,-49.93 270.57,-54.47 280.46,-58.84"/>
<polygon fill="black" stroke="black" points="279.31,-62.17 289.87,-63.12 282.21,-55.79 279.31,-62.17"/>
</g>
</g>
</svg>
